<svg width="16" height="16" viewBox="0 0 16 16" fill="none" xmlns="http://www.w3.org/2000/svg">
<path d="M13.3333 0H2.66667C1.95942 0 1.28115 0.210714 0.781048 0.585786C0.280951 0.960859 0 1.46957 0 2V14C0 14.5304 0.280951 15.0391 0.781048 15.4142C1.28115 15.7893 1.95942 16 2.66667 16H13.3333C14.0406 16 14.7189 15.7893 15.219 15.4142C15.719 15.0391 16 14.5304 16 14V2C16 1.46957 15.719 0.960859 15.219 0.585786C14.7189 0.210714 14.0406 0 13.3333 0ZM10.6667 11.5V5.5C10.6667 5.36739 10.7369 5.24021 10.8619 5.14645C10.987 5.05268 11.1565 5 11.3333 5H12.6667C12.8435 5 13.013 5.05268 13.1381 5.14645C13.2631 5.24021 13.3333 5.36739 13.3333 5.5V11.5C13.3333 11.6326 13.2631 11.7598 13.1381 11.8536C13.013 11.9473 12.8435 12 12.6667 12H11.3333C11.1565 12 10.987 11.9473 10.8619 11.8536C10.7369 11.7598 10.6667 11.6326 10.6667 11.5ZM7.33333 12C7.15652 12 6.98695 11.9473 6.86193 11.8536C6.7369 11.7598 6.66667 11.6326 6.66667 11.5V7.5C6.66667 7.36739 6.7369 7.24021 6.86193 7.14645C6.98695 7.05268 7.15652 7 7.33333 7H8.66667C8.84348 7 9.01305 7.05268 9.13807 7.14645C9.2631 7.24021 9.33333 7.36739 9.33333 7.5V11.5C9.33333 11.6326 9.2631 11.7598 9.13807 11.8536C9.01305 11.9473 8.84348 12 8.66667 12H7.33333ZM3.33333 12C3.15652 12 2.98695 11.9473 2.86193 11.8536C2.7369 11.7598 2.66667 11.6326 2.66667 11.5V9.5C2.66667 9.36739 2.7369 9.24021 2.86193 9.14645C2.98695 9.05268 3.15652 9 3.33333 9H4.66667C4.84348 9 5.01305 9.05268 5.13807 9.14645C5.26309 9.24021 5.33333 9.36739 5.33333 9.5V11.5C5.33333 11.6326 5.26309 11.7598 5.13807 11.8536C5.01305 11.9473 4.84348 12 4.66667 12H3.33333Z" fill="#FFA500"/>
</svg>
