<svg width="20" height="20" viewBox="0 0 20 20" fill="none" xmlns="http://www.w3.org/2000/svg">
<path d="M11.1119 15.9735C11.3683 15.9735 11.5793 15.9017 11.7452 15.758C11.911 15.6144 11.994 15.4316 11.994 15.2097V12.7157H12.2126C13.1876 12.7157 14.0495 12.7984 14.7983 12.9638C15.5472 13.1292 16.2081 13.4132 16.781 13.8158C17.354 14.2184 17.8591 14.7766 18.2963 15.4904C18.427 15.6993 18.574 15.832 18.7373 15.8886C18.9006 15.9452 19.0627 15.9735 19.2235 15.9735C19.4246 15.9735 19.6042 15.8984 19.7625 15.7482C19.9208 15.5981 20 15.3816 20 15.0987C20 13.893 19.848 12.8082 19.5439 11.8441C19.2399 10.8801 18.7725 10.0564 18.1417 9.37305C17.511 8.68973 16.7044 8.16744 15.7218 7.80618C14.7393 7.44493 13.5695 7.26431 12.2126 7.26431H11.994V4.79649C11.994 4.57887 11.911 4.39172 11.7452 4.23503C11.5793 4.07834 11.3632 4 11.0969 4C10.9109 4 10.7451 4.03591 10.5993 4.10772C10.4536 4.17954 10.2802 4.29814 10.0791 4.46353L4.13117 9.28165C3.99045 9.39482 3.89119 9.51124 3.8334 9.63093C3.7756 9.75063 3.74671 9.86923 3.74671 9.98674C3.74671 10.0999 3.7756 10.2174 3.8334 10.3393C3.89119 10.4612 3.99045 10.5765 4.13117 10.6853L10.0791 15.5491C10.2601 15.6971 10.431 15.8048 10.5918 15.8723C10.7526 15.9398 10.926 15.9735 11.1119 15.9735ZM7.36525 15.98C7.62158 15.98 7.83266 15.9234 7.99847 15.8103C8.16434 15.6971 8.24727 15.5644 8.24727 15.412V15.1901L3.40746 11.3186C3.17628 11.1358 2.99661 10.9312 2.86845 10.7049C2.7403 10.4786 2.67622 10.2414 2.67622 9.99327C2.67622 9.74518 2.73904 9.50798 2.86468 9.28165C2.99033 9.05533 3.17125 8.84859 3.40746 8.66144L8.24727 4.82261V4.60063C8.24727 4.44395 8.16308 4.30576 7.99469 4.18607C7.82635 4.06637 7.61151 4.00653 7.35017 4.00653C7.16422 4.00653 6.99837 4.04244 6.85262 4.11425C6.70687 4.18607 6.53348 4.30467 6.33245 4.47006L0.376932 9.28818C0.236211 9.4057 0.138208 9.52539 0.0829251 9.64726C0.0276417 9.76912 0 9.88446 0 9.99327C0 10.0977 0.0276417 10.2109 0.0829251 10.3328C0.138208 10.4546 0.236211 10.5743 0.376932 10.6919L6.33245 15.5557C6.50835 15.7037 6.67797 15.8114 6.84131 15.8789C7.00465 15.9463 7.1793 15.98 7.36525 15.98Z" fill="#FFA500"/>
</svg>
