<svg width="16" height="17" viewBox="0 0 16 17" fill="none" xmlns="http://www.w3.org/2000/svg">
<path d="M2.44219 10.0643V14.9946C2.44219 15.5877 2.64909 16.0677 3.06288 16.4346C3.47667 16.8015 4.01893 16.9849 4.68966 16.9849H13.7525C14.4233 16.9849 14.9655 16.8015 15.3793 16.4346C15.7931 16.0677 16 15.5877 16 14.9946V1.99778C16 1.3997 15.7931 0.91722 15.3793 0.550332C14.9655 0.183444 14.4233 0 13.7525 0H4.68966C4.01893 0 3.47667 0.183444 3.06288 0.550332C2.64909 0.91722 2.44219 1.3997 2.44219 1.99778V6.92815H3.74848V2.20133C3.74848 1.88972 3.84584 1.64723 4.04057 1.47383C4.23529 1.30044 4.50845 1.21375 4.86004 1.21375H13.5903C13.9364 1.21375 14.2069 1.30044 14.4016 1.47383C14.5963 1.64723 14.6937 1.88972 14.6937 2.20133V14.7912C14.6937 15.0977 14.5963 15.3377 14.4016 15.5111C14.2069 15.6845 13.9364 15.7712 13.5903 15.7712H4.86004C4.50845 15.7712 4.23529 15.6845 4.04057 15.5111C3.84584 15.3377 3.74848 15.0977 3.74848 14.7912V10.0643H2.44219ZM0.592293 9.02398H5.89047L7.60244 8.94855L5.82556 10.4262L5.36309 10.8559C5.31441 10.9111 5.27384 10.9727 5.24138 11.0406C5.20893 11.1084 5.1927 11.1825 5.1927 11.2629C5.1927 11.4137 5.24544 11.5381 5.35092 11.6361C5.45639 11.7341 5.58756 11.7832 5.74442 11.7832C5.91211 11.7832 6.05545 11.7279 6.17445 11.6173L9.11971 8.88826C9.26035 8.75759 9.33066 8.6244 9.33066 8.48869C9.33066 8.34294 9.26035 8.20725 9.11971 8.08163L6.17445 5.36009C6.05545 5.24952 5.91211 5.19423 5.74442 5.19423C5.58756 5.19423 5.45639 5.24198 5.35092 5.33747C5.24544 5.43296 5.1927 5.55609 5.1927 5.70687C5.1927 5.79231 5.20893 5.86895 5.24138 5.9368C5.27384 6.00465 5.31441 6.06371 5.36309 6.11396L5.82556 6.55122L7.60244 8.02126L5.89047 7.94592H0.592293C0.408384 7.94592 0.263692 8.00119 0.158215 8.11174C0.0527385 8.22233 0 8.34799 0 8.48869C0 8.6294 0.0527385 8.75379 0.158215 8.86186C0.263692 8.96994 0.408384 9.02398 0.592293 9.02398Z" fill="#FFA500"/>
</svg>
