<svg width="17" height="20" viewBox="0 0 17 20" fill="none" xmlns="http://www.w3.org/2000/svg">
<path d="M6.06265 0.00603752C5.95099 0.022643 5.84434 0.0636201 5.75028 0.126061C5.75028 0.126061 4.77701 0.73849 3.73065 1.40093C2.68429 2.0626 1.52022 2.79197 1.25401 2.9397C1.23759 2.94682 1.22142 2.95452 1.20554 2.96278C0.239193 3.55905 0.0383837 4.53309 0.00376143 5.07935C0.00145328 5.10474 0.00376143 5.12551 0.00376143 5.15244C-0.00470179 5.3571 0.00376143 5.48866 0.00376143 5.48866V15.5391C0.00376143 16.9994 1.70641 17.7019 3.32211 17.7019C3.86068 17.7019 4.39925 17.6149 4.86088 17.461C5.16863 17.3072 5.38944 16.9994 5.38944 16.6917V8.61313C5.38944 6.84355 5.77413 6.01261 6.92821 5.32017C7.23596 5.16629 10.4628 2.93893 10.4628 2.93893C10.6166 2.78505 10.7751 2.47268 10.7751 2.24187V2.16954C10.7751 1.86179 10.6212 1.62636 10.3904 1.47248C10.1596 1.31861 9.85186 1.31861 9.62105 1.47248C9.54411 1.54942 4.85087 4.70928 3.85068 5.24785C2.85048 5.86335 1.91722 6.01184 1.6864 5.70409C1.61485 5.63254 1.55253 5.41326 1.54253 5.19937V5.1509C1.5433 4.94163 1.59715 4.54771 2.02339 4.28535C2.45579 4.04453 3.52907 3.35901 4.57236 2.69888C5.01322 2.41959 5.06784 2.38959 5.41329 2.16954C5.45877 2.3575 5.57335 2.52144 5.73424 2.62873C5.89513 2.73601 6.09052 2.77878 6.28151 2.74852C6.47251 2.71825 6.6451 2.61717 6.76494 2.4654C6.88478 2.31363 6.94307 2.1223 6.92821 1.9295V0.775421C6.92907 0.665757 6.90648 0.557176 6.86194 0.456957C6.81741 0.356738 6.75197 0.267198 6.67 0.194339C6.58803 0.12148 6.49144 0.0669857 6.38669 0.0345095C6.28194 0.00203329 6.17146 -0.00767429 6.06265 0.00603752ZM12.2177 2.69888C12.0954 2.71923 11.9798 2.76885 11.8807 2.84352C11.8807 2.84352 8.00765 5.44942 7.33675 5.89644C7.32862 5.90446 7.32067 5.91267 7.3129 5.92106C6.75587 6.33883 6.4258 6.83585 6.27885 7.29056C6.19651 7.54707 6.15598 7.81517 6.15883 8.08456V8.32538C6.15772 8.34922 6.15772 8.37309 6.15883 8.39693V17.7019C6.15883 19.1637 7.84224 20.01 9.381 20.01C10.0734 20.01 10.6982 19.8607 11.1598 19.553C12.0831 19.0144 16.5455 15.5383 16.5455 15.5383C16.7763 15.3845 16.9302 15.1675 16.9302 14.9367V4.93471C16.9302 4.55001 16.7809 4.3192 16.4732 4.16532C16.2424 4.01145 15.8631 4.08377 15.6322 4.23765C14.4012 5.1609 11.0875 7.76757 10.3181 8.2292C9.24097 8.84471 8.22616 8.99859 7.84147 8.6139C7.68759 8.46002 7.69759 8.31538 7.69759 8.08456C7.70221 7.95223 7.71683 7.83836 7.74606 7.74757C7.78915 7.6137 7.87686 7.44905 8.20231 7.19515C8.2177 7.18284 8.21 7.18361 8.22616 7.1713C8.78242 6.79969 10.4835 5.64023 11.593 4.88624C11.6558 5.05486 11.7758 5.19612 11.932 5.28543C12.0883 5.37475 12.2709 5.40648 12.4481 5.3751C12.6253 5.34373 12.7859 5.25122 12.9019 5.11369C13.018 4.97616 13.0821 4.80229 13.0833 4.62234V3.46826C13.0841 3.3586 13.0615 3.25002 13.017 3.1498C12.9725 3.04958 12.907 2.96004 12.8251 2.88718C12.7431 2.81432 12.6465 2.75983 12.5418 2.72735C12.437 2.69487 12.3265 2.68517 12.2177 2.69888ZM15.3914 8.32538V9.86414L11.5445 12.8447V11.306L15.3914 8.32538Z" fill="#008080"/>
</svg>
