<svg width="18" height="19" viewBox="0 0 18 19" fill="none" xmlns="http://www.w3.org/2000/svg">
<path d="M17.1955 13.4852L14.3542 10.6431L11.4956 1.21205C11.4144 0.943504 11.2682 0.699138 11.0699 0.500598C10.8717 0.302059 10.6275 0.155475 10.3591 0.0738309C10.0907 -0.00781289 9.80628 -0.0219964 9.53107 0.032537C9.25585 0.0870704 8.99833 0.208637 8.78132 0.386469C8.56431 0.208637 8.3068 0.0870704 8.03158 0.032537C7.75637 -0.0219964 7.47195 -0.00781289 7.20352 0.0738309C6.9351 0.155475 6.69095 0.302059 6.49271 0.500598C6.29447 0.699138 6.14826 0.943504 6.06702 1.21205L3.20845 10.6439L0.367128 13.4852C0.132052 13.7205 0 14.0394 0 14.372C0 14.7045 0.132052 15.0235 0.367128 15.2587L2.93012 17.8217C3.04661 17.9382 3.18491 18.0306 3.33712 18.0937C3.48934 18.1568 3.65249 18.1892 3.81725 18.1892C3.98201 18.1892 4.14515 18.1568 4.29737 18.0937C4.44958 18.0306 4.58788 17.9382 4.70437 17.8217L8.48967 14.0341C8.5946 13.9289 8.69206 13.8165 8.78132 13.6977C8.87059 13.8165 8.96805 13.9289 9.07298 14.0341L12.8583 17.8225C12.9748 17.939 13.1131 18.0314 13.2653 18.0945C13.4175 18.1575 13.5806 18.19 13.7454 18.19C13.9102 18.19 14.0733 18.1575 14.2255 18.0945C14.3777 18.0314 14.516 17.939 14.6325 17.8225L17.1955 15.2595C17.312 15.143 17.4045 15.0047 17.4675 14.8525C17.5306 14.7003 17.563 14.5371 17.563 14.3724C17.563 14.2076 17.5306 14.0445 17.4675 13.8922C17.4045 13.74 17.312 13.6017 17.1955 13.4852ZM8.1541 11.8192C8.15535 12.0666 8.10749 12.3118 8.01328 12.5406C7.91907 12.7694 7.78039 12.9772 7.60528 13.152L5.69852 15.0533L3.13632 12.4911L4.20652 11.4201C4.27955 11.3471 4.33341 11.2571 4.36332 11.1582L7.26423 1.57584C7.29365 1.46921 7.36106 1.37703 7.45375 1.31666C7.54644 1.25629 7.658 1.2319 7.76742 1.2481C7.87685 1.2643 7.97657 1.31996 8.04779 1.40459C8.11902 1.48922 8.15683 1.59698 8.1541 1.70756V11.8192ZM11.8735 15.0635L9.95737 13.1497C9.78226 12.9749 9.64358 12.767 9.54937 12.5383C9.45516 12.3095 9.4073 12.0642 9.40855 11.8168V1.70285C9.40858 1.59422 9.44762 1.48922 9.51858 1.40696C9.58954 1.32471 9.68768 1.27068 9.79513 1.25472C9.90258 1.23876 10.0122 1.26193 10.104 1.32001C10.1958 1.37808 10.2637 1.4672 10.2953 1.57114L13.1962 11.1535C13.2261 11.2524 13.28 11.3424 13.353 11.4154L14.4891 12.5515L11.8735 15.0635Z" fill="#6A6A6A"/>
</svg>
