<svg width="17" height="17" viewBox="0 0 17 17" fill="none" xmlns="http://www.w3.org/2000/svg">
<path d="M16.3338 2.55554L14.2782 0.499983C14.1015 0.331525 13.8668 0.237549 13.6227 0.237549C13.3785 0.237549 13.1438 0.331525 12.9671 0.499983L11.1393 2.33332H1.33377C1.03908 2.33332 0.756467 2.45038 0.548093 2.65875C0.339719 2.86713 0.222656 3.14974 0.222656 3.44443V15.6666C0.222656 15.9613 0.339719 16.2439 0.548093 16.4523C0.756467 16.6607 1.03908 16.7778 1.33377 16.7778H13.556C13.8507 16.7778 14.1333 16.6607 14.3417 16.4523C14.55 16.2439 14.6671 15.9613 14.6671 15.6666V5.53332L16.3338 3.86665C16.5075 3.6927 16.605 3.45692 16.605 3.21109C16.605 2.96527 16.5075 2.72949 16.3338 2.55554ZM8.46155 10.1833L6.13377 10.7L6.68932 8.39443L11.9949 3.07776L13.7893 4.8722L8.46155 10.1833ZM14.3893 4.23887L12.5949 2.44443L13.6227 1.41665L15.4171 3.21109L14.3893 4.23887Z" fill="#FFA500"/>
</svg>
