<svg width="17" height="18" viewBox="0 0 17 18" fill="none" xmlns="http://www.w3.org/2000/svg">
<path d="M8.215 6.63911C7.63554 6.63911 7.0929 6.86392 6.68204 7.27477C6.27313 7.68563 6.04638 8.22827 6.04638 8.80773C6.04638 9.38719 6.27313 9.92983 6.68204 10.3407C7.0929 10.7496 7.63554 10.9763 8.215 10.9763C8.79446 10.9763 9.3371 10.7496 9.74795 10.3407C10.1569 9.92983 10.3836 9.38719 10.3836 8.80773C10.3836 8.22827 10.1569 7.68563 9.74795 7.27477C9.54728 7.07255 9.30843 6.91223 9.04527 6.8031C8.78211 6.69398 8.49989 6.63824 8.215 6.63911ZM16.2054 11.2031L14.9379 10.1198C14.998 9.75153 15.029 9.37556 15.029 9.00153C15.029 8.62749 14.998 8.24958 14.9379 7.8833L16.2054 6.79996C16.3011 6.718 16.3696 6.60883 16.4018 6.48697C16.434 6.36512 16.4284 6.23635 16.3856 6.11779L16.3682 6.0674C16.0193 5.09199 15.4967 4.18784 14.8255 3.39878L14.7906 3.35808C14.7091 3.26225 14.6005 3.19336 14.4791 3.16049C14.3576 3.12763 14.2291 3.13233 14.1104 3.17397L12.5367 3.73405C11.9553 3.2573 11.308 2.88133 10.6065 2.6197L10.3022 0.97434C10.2793 0.85039 10.2191 0.736359 10.1298 0.647396C10.0405 0.558433 9.92626 0.498749 9.80222 0.476275L9.74989 0.466585C8.74213 0.284413 7.68011 0.284413 6.67235 0.466585L6.62003 0.476275C6.49599 0.498749 6.38172 0.558433 6.29242 0.647396C6.20311 0.736359 6.14298 0.85039 6.12002 0.97434L5.81382 2.62745C5.11891 2.89117 4.47155 3.26623 3.89714 3.73792L2.31186 3.17397C2.19319 3.13199 2.06455 3.12713 1.94305 3.16001C1.82154 3.1929 1.71292 3.26198 1.63162 3.35808L1.59674 3.39878C0.926757 4.18868 0.404232 5.0926 0.0540916 6.0674L0.0366496 6.11779C-0.0505603 6.36004 0.0211457 6.63136 0.216883 6.79996L1.49984 7.89493C1.43976 8.25927 1.41069 8.63137 1.41069 8.99959C1.41069 9.37169 1.43976 9.74378 1.49984 10.1042L0.220759 11.1992C0.125014 11.2812 0.0564878 11.3904 0.0242929 11.5122C-0.00790204 11.6341 -0.00224025 11.7628 0.0405256 11.8814L0.0579676 11.9318C0.408745 12.9066 0.92619 13.8078 1.60061 14.6004L1.6355 14.6411C1.717 14.7369 1.82562 14.8058 1.94705 14.8387C2.06849 14.8716 2.19703 14.8669 2.31573 14.8252L3.90102 14.2613C4.47854 14.7361 5.12195 15.112 5.8177 15.3717L6.1239 17.0248C6.14686 17.1488 6.20698 17.2628 6.29629 17.3518C6.3856 17.4407 6.49986 17.5004 6.6239 17.5229L6.67623 17.5326C7.6939 17.7157 8.7361 17.7157 9.75377 17.5326L9.80609 17.5229C9.93013 17.5004 10.0444 17.4407 10.1337 17.3518C10.223 17.2628 10.2831 17.1488 10.3061 17.0248L10.6104 15.3795C11.3119 15.1159 11.9592 14.7419 12.5406 14.2651L14.1143 14.8252C14.2329 14.8672 14.3616 14.8721 14.4831 14.8392C14.6046 14.8063 14.7132 14.7372 14.7945 14.6411L14.8294 14.6004C15.5038 13.8039 16.0213 12.9066 16.372 11.9318L16.3895 11.8814C16.4728 11.6411 16.4011 11.3717 16.2054 11.2031ZM8.215 12.2147C6.3332 12.2147 4.808 10.6895 4.808 8.80773C4.808 6.92593 6.3332 5.40073 8.215 5.40073C10.0968 5.40073 11.622 6.92593 11.622 8.80773C11.622 10.6895 10.0968 12.2147 8.215 12.2147Z" fill="#FFA500"/>
</svg>
