<svg width="17" height="18" viewBox="0 0 17 18" fill="none" xmlns="http://www.w3.org/2000/svg">
<path d="M10.35 14.4C9.72 14.4 9.1875 14.1825 8.7525 13.7475C8.3175 13.3125 8.1 12.78 8.1 12.15C8.1 11.52 8.3175 10.9875 8.7525 10.5525C9.1875 10.1175 9.72 9.9 10.35 9.9C10.98 9.9 11.5125 10.1175 11.9475 10.5525C12.3825 10.9875 12.6 11.52 12.6 12.15C12.6 12.78 12.3825 13.3125 11.9475 13.7475C11.5125 14.1825 10.98 14.4 10.35 14.4ZM1.8 18C1.305 18 0.8814 17.8239 0.5292 17.4717C0.177 17.1195 0.0006 16.6956 0 16.2V3.6C0 3.105 0.1764 2.6814 0.5292 2.3292C0.882 1.977 1.3056 1.8006 1.8 1.8H2.7V0H4.5V1.8H11.7V0H13.5V1.8H14.4C14.895 1.8 15.3189 1.9764 15.6717 2.3292C16.0245 2.682 16.2006 3.1056 16.2 3.6V16.2C16.2 16.695 16.0239 17.1189 15.6717 17.4717C15.3195 17.8245 14.8956 18.0006 14.4 18H1.8ZM1.8 16.2H14.4V7.2H1.8V16.2Z" fill="#6A6A6A"/>
</svg>
