<svg width="17" height="17" viewBox="0 0 17 17" fill="none" xmlns="http://www.w3.org/2000/svg">
<path d="M16.774 8.76506L9.12741 0.268903C8.8054 -0.0896345 8.18688 -0.0896345 7.86488 0.268903L0.218337 8.76506C0.108275 8.88706 0.0360309 9.03841 0.0103891 9.20071C-0.0152526 9.36301 0.00681285 9.52926 0.0739027 9.67925C0.209841 9.98596 0.514004 10.1831 0.849602 10.1831H2.54883V16.1304C2.54883 16.3557 2.63835 16.5718 2.79768 16.7312C2.95701 16.8905 3.17312 16.98 3.39845 16.98H5.9473C6.17263 16.98 6.38873 16.8905 6.54806 16.7312C6.7074 16.5718 6.79691 16.3557 6.79691 16.1304V12.7319H10.1954V16.1304C10.1954 16.3557 10.2849 16.5718 10.4442 16.7312C10.6036 16.8905 10.8197 16.98 11.045 16.98H13.5938C13.8192 16.98 14.0353 16.8905 14.1946 16.7312C14.3539 16.5718 14.4435 16.3557 14.4435 16.1304V10.1831H16.1427C16.3072 10.1838 16.4684 10.1366 16.6066 10.0473C16.7448 9.95793 16.854 9.83033 16.9209 9.68001C16.9878 9.52969 17.0096 9.36314 16.9835 9.20068C16.9574 9.03822 16.8846 8.88686 16.774 8.76506Z" fill="#6A6A6A"/>
</svg>
