<svg width="21" height="16" viewBox="0 0 21 16" fill="none" xmlns="http://www.w3.org/2000/svg">
<path d="M13.7865 7.81499C12.9008 7.81499 12.0443 7.40737 11.3739 6.66761C10.722 5.94605 10.324 4.98383 10.2537 3.959C10.1788 2.86579 10.5023 1.8605 11.1645 1.12785C11.8267 0.39519 12.7526 0 13.7865 0C14.8132 0 15.7417 0.402294 16.4017 1.13317C17.0682 1.87116 17.3926 2.87467 17.3176 3.95856C17.2457 4.98472 16.848 5.9465 16.1975 6.66716C15.5288 7.40737 14.6728 7.81499 13.7865 7.81499ZM19.4662 15.63H8.10733C7.92471 15.631 7.74429 15.5888 7.57997 15.5067C7.41565 15.4245 7.2718 15.3046 7.1595 15.1562C7.04038 14.9953 6.95811 14.8087 6.91887 14.6104C6.87963 14.4121 6.88442 14.2072 6.93288 14.011C7.29564 12.5098 8.19436 11.2647 9.53166 10.4108C10.7186 9.65329 12.2295 9.2359 13.7865 9.2359C15.3742 9.2359 16.8454 9.63553 18.0393 10.3926C19.3796 11.242 20.2796 12.4942 20.6406 14.0137C20.6885 14.21 20.6928 14.4149 20.6531 14.6131C20.6134 14.8113 20.5308 14.9977 20.4114 15.1584C20.2992 15.3062 20.1557 15.4255 19.9919 15.5072C19.828 15.5889 19.6482 15.6309 19.4662 15.63ZM5.64384 7.9926C4.12774 7.9926 2.79475 6.53973 2.6711 4.75427C2.60993 3.83956 2.88652 2.99367 3.4466 2.37336C4.00065 1.75926 4.78218 1.42091 5.64384 1.42091C6.5055 1.42091 7.281 1.76104 7.83806 2.37869C8.40245 3.00389 8.67818 3.848 8.61356 4.75516C8.48991 6.54017 7.15735 7.9926 5.64384 7.9926ZM8.47268 9.38909C7.71484 9.00722 6.73126 8.81629 5.64427 8.81629C4.37504 8.81629 3.14243 9.15731 2.17306 9.77629C1.07401 10.4792 0.334707 11.5027 0.0361408 12.7384C-0.00755187 12.9162 -0.0116844 13.1018 0.0240523 13.2814C0.059789 13.4611 0.13447 13.63 0.242509 13.7757C0.345024 13.9113 0.476357 14.0209 0.626408 14.0961C0.776459 14.1712 0.94123 14.2099 1.10805 14.2091H5.89027C5.97099 14.2091 6.04914 14.1799 6.1111 14.1265C6.17307 14.0732 6.21491 13.9992 6.22934 13.9173C6.23408 13.8894 6.24011 13.8614 6.247 13.8339C6.61235 12.3215 7.46841 11.0436 8.73333 10.112C8.77985 10.0774 8.81727 10.0314 8.8422 9.9782C8.86712 9.92496 8.87877 9.86616 8.87607 9.80712C8.87337 9.74807 8.85643 9.69066 8.82676 9.64007C8.7971 9.58948 8.75565 9.54732 8.70619 9.51742C8.63855 9.47656 8.561 9.43349 8.47268 9.38909Z" fill="#6A6A6A"/>
</svg>
